<svg width="13" height="20" viewBox="0 0 13 20" fill="none" xmlns="http://www.w3.org/2000/svg">
<path d="M2.05247 3C2.63373 3 3.10494 2.55228 3.10494 2C3.10494 1.44772 2.63373 1 2.05247 1C1.47121 1 1 1.44772 1 2C1 2.55228 1.47121 3 2.05247 3Z" stroke="black" stroke-width="2" stroke-linecap="round" stroke-linejoin="round"/>
<path d="M10.4724 3C11.0537 3 11.5249 2.55228 11.5249 2C11.5249 1.44772 11.0537 1 10.4724 1C9.89113 1 9.41992 1.44772 9.41992 2C9.41992 2.55228 9.89113 3 10.4724 3Z" stroke="black" stroke-width="2" stroke-linecap="round" stroke-linejoin="round"/>
<path d="M2.05247 11C2.63373 11 3.10494 10.5523 3.10494 10C3.10494 9.44772 2.63373 9 2.05247 9C1.47121 9 1 9.44772 1 10C1 10.5523 1.47121 11 2.05247 11Z" stroke="black" stroke-width="2" stroke-linecap="round" stroke-linejoin="round"/>
<path d="M10.4724 11C11.0537 11 11.5249 10.5523 11.5249 10C11.5249 9.44772 11.0537 9 10.4724 9C9.89113 9 9.41992 9.44772 9.41992 10C9.41992 10.5523 9.89113 11 10.4724 11Z" stroke="black" stroke-width="2" stroke-linecap="round" stroke-linejoin="round"/>
<path d="M2.05247 19C2.63373 19 3.10494 18.5523 3.10494 18C3.10494 17.4477 2.63373 17 2.05247 17C1.47121 17 1 17.4477 1 18C1 18.5523 1.47121 19 2.05247 19Z" stroke="black" stroke-width="2" stroke-linecap="round" stroke-linejoin="round"/>
<path d="M10.4724 19C11.0537 19 11.5249 18.5523 11.5249 18C11.5249 17.4477 11.0537 17 10.4724 17C9.89113 17 9.41992 17.4477 9.41992 18C9.41992 18.5523 9.89113 19 10.4724 19Z" stroke="black" stroke-width="2" stroke-linecap="round" stroke-linejoin="round"/>
</svg>
